<svg width="19" height="19" viewBox="0 0 19 19" fill="none" xmlns="http://www.w3.org/2000/svg">
<g clip-path="url(#clip0_1_312)">
<path d="M9.2878 0C4.15834 0 0 4.15834 0 9.28781C0 13.6434 2.99885 17.2984 7.04424 18.3022V12.1262H5.1291V9.28781H7.04424V8.06479C7.04424 4.90359 8.47494 3.43835 11.5785 3.43835C12.167 3.43835 13.1824 3.55389 13.5977 3.66905V6.24178C13.3785 6.21874 12.9977 6.20723 12.5248 6.20723C11.002 6.20723 10.4135 6.78418 10.4135 8.28398V9.28781H13.4473L12.926 12.1262H10.4135V18.5076C15.0124 17.9522 18.576 14.0365 18.576 9.28781C18.5756 4.15834 14.4173 0 9.2878 0Z" fill="#202A54"/>
</g>
<defs>
<clipPath id="clip0_1_312">
<rect width="18.5756" height="18.5756" fill="white"/>
</clipPath>
</defs>
</svg>
