<svg width="19" height="19" viewBox="0 0 19 19" fill="none" xmlns="http://www.w3.org/2000/svg">
<g opacity="0.5" clip-path="url(#clip0_1_310)">
<path d="M9.43917 1.67253C11.9208 1.67253 12.2146 1.68341 13.1906 1.72695C14.0976 1.76686 14.5874 1.91924 14.9139 2.04622C15.3456 2.21311 15.6576 2.41628 15.9805 2.73918C16.3071 3.0657 16.5066 3.37409 16.6735 3.80582C16.8005 4.13235 16.9529 4.62576 16.9928 5.52915C17.0363 6.50872 17.0472 6.80259 17.0472 9.28055C17.0472 11.7621 17.0363 12.056 16.9928 13.032C16.9529 13.939 16.8005 14.4288 16.6735 14.7553C16.5066 15.187 16.3034 15.499 15.9805 15.8219C15.654 16.1484 15.3456 16.348 14.9139 16.5149C14.5874 16.6419 14.094 16.7942 13.1906 16.8341C12.211 16.8777 11.9171 16.8886 9.43917 16.8886C6.95759 16.8886 6.66372 16.8777 5.68777 16.8341C4.78076 16.7942 4.29097 16.6419 3.96445 16.5149C3.53271 16.348 3.2207 16.1448 2.8978 15.8219C2.57128 15.4954 2.37173 15.187 2.20484 14.7553C2.07786 14.4288 1.92548 13.9353 1.88557 13.032C1.84204 12.0524 1.83115 11.7585 1.83115 9.28055C1.83115 6.79896 1.84204 6.50509 1.88557 5.52915C1.92548 4.62213 2.07786 4.13235 2.20484 3.80582C2.37173 3.37409 2.5749 3.06207 2.8978 2.73918C3.22432 2.41265 3.53271 2.21311 3.96445 2.04622C4.29097 1.91924 4.78439 1.76686 5.68777 1.72695C6.66372 1.68341 6.95759 1.67253 9.43917 1.67253ZM9.43917 0C6.91768 0 6.60204 0.0108841 5.61158 0.0544207C4.62475 0.0979573 3.94631 0.257591 3.35856 0.486159C2.74542 0.72561 2.22661 1.04125 1.71143 1.56006C1.19262 2.07524 0.876977 2.59406 0.637526 3.20357C0.408959 3.79494 0.249325 4.46976 0.205788 5.45659C0.162251 6.45067 0.151367 6.76631 0.151367 9.28781C0.151367 11.8093 0.162251 12.1249 0.205788 13.1154C0.249325 14.1022 0.408959 14.7807 0.637526 15.3684C0.876977 15.9816 1.19262 16.5004 1.71143 17.0155C2.22661 17.5307 2.74542 17.85 3.35493 18.0858C3.94631 18.3144 4.62112 18.474 5.60795 18.5176C6.59841 18.5611 6.91405 18.572 9.43554 18.572C11.957 18.572 12.2727 18.5611 13.2631 18.5176C14.25 18.474 14.9284 18.3144 15.5162 18.0858C16.1257 17.85 16.6445 17.5307 17.1597 17.0155C17.6748 16.5004 17.9941 15.9816 18.2299 15.372C18.4585 14.7807 18.6181 14.1059 18.6617 13.119C18.7052 12.1286 18.7161 11.8129 18.7161 9.29143C18.7161 6.76994 18.7052 6.4543 18.6617 5.46384C18.6181 4.47701 18.4585 3.79857 18.2299 3.21082C18.0014 2.59406 17.6857 2.07524 17.1669 1.56006C16.6517 1.04488 16.1329 0.72561 15.5234 0.489787C14.932 0.26122 14.2572 0.101585 13.2704 0.0580488C12.2763 0.0108842 11.9607 0 9.43917 0Z" fill="#202A54"/>
<path d="M9.43922 4.5166C6.80526 4.5166 4.66833 6.65352 4.66833 9.28749C4.66833 11.9214 6.80526 14.0584 9.43922 14.0584C12.0732 14.0584 14.2101 11.9214 14.2101 9.28749C14.2101 6.65352 12.0732 4.5166 9.43922 4.5166ZM9.43922 12.3822C7.73041 12.3822 6.34449 10.9963 6.34449 9.28749C6.34449 7.57867 7.73041 6.19276 9.43922 6.19276C11.148 6.19276 12.5339 7.57867 12.5339 9.28749C12.5339 10.9963 11.148 12.3822 9.43922 12.3822Z" fill="#202A54"/>
<path d="M15.5125 4.32866C15.5125 4.94543 15.0119 5.44247 14.3987 5.44247C13.782 5.44247 13.2849 4.9418 13.2849 4.32866C13.2849 3.71189 13.7856 3.21484 14.3987 3.21484C15.0119 3.21484 15.5125 3.71552 15.5125 4.32866Z" fill="#202A54"/>
</g>
<defs>
<clipPath id="clip0_1_310">
<rect width="18.5756" height="18.5756" fill="white" transform="translate(0.151367)"/>
</clipPath>
</defs>
</svg>
