<svg width="20" height="19" viewBox="0 0 20 19" fill="none" xmlns="http://www.w3.org/2000/svg">
<g opacity="0.5" clip-path="url(#clip0_1_309)">
<path d="M19.1176 5.5729C19.1176 5.5729 18.9362 4.2922 18.3775 3.72985C17.67 2.98973 16.8791 2.9861 16.5163 2.94256C13.9186 2.75391 10.0185 2.75391 10.0185 2.75391H10.0112C10.0112 2.75391 6.11107 2.75391 3.51339 2.94256C3.15059 2.9861 2.35967 2.98973 1.6522 3.72985C1.09348 4.2922 0.915709 5.5729 0.915709 5.5729C0.915709 5.5729 0.727051 7.07854 0.727051 8.58055V9.98823C0.727051 11.4902 0.912081 12.9959 0.912081 12.9959C0.912081 12.9959 1.09348 14.2766 1.64858 14.8389C2.35604 15.5791 3.28483 15.5537 3.69842 15.6335C5.18592 15.775 10.0149 15.8185 10.0149 15.8185C10.0149 15.8185 13.9186 15.8113 16.5163 15.6262C16.8791 15.5827 17.67 15.5791 18.3775 14.8389C18.9362 14.2766 19.1176 12.9959 19.1176 12.9959C19.1176 12.9959 19.3027 11.4939 19.3027 9.98823V8.58055C19.3027 7.07854 19.1176 5.5729 19.1176 5.5729ZM8.09562 11.697V6.47628L13.1132 9.09573L8.09562 11.697Z" fill="#202A54"/>
</g>
<defs>
<clipPath id="clip0_1_309">
<rect width="18.5756" height="18.5756" fill="white" transform="translate(0.727051)"/>
</clipPath>
</defs>
</svg>
