<svg width="237" height="153" viewBox="0 0 237 153" fill="none" xmlns="http://www.w3.org/2000/svg">
<path d="M0 0H237V86.5179L118.5 153L0 86.5179V0Z" fill="#F6D200"/>
<path d="M209 91L118 142L27 91" stroke="#202A54" stroke-width="5"/>
<path d="M80.304 62.368C78.5253 62.368 76.9613 62.0153 75.612 61.31C74.2627 60.6047 73.22 59.6233 72.484 58.366C71.748 57.078 71.38 55.606 71.38 53.95V52.616C71.38 52.4627 71.426 52.34 71.518 52.248C71.6407 52.1253 71.7787 52.064 71.932 52.064H77.222C77.3753 52.064 77.498 52.1253 77.59 52.248C77.7127 52.34 77.774 52.4627 77.774 52.616V53.628C77.774 54.5787 78.0193 55.3453 78.51 55.928C79.0007 56.5107 79.614 56.802 80.35 56.802C81.086 56.802 81.6993 56.526 82.19 55.974C82.6807 55.422 82.926 54.7013 82.926 53.812C82.926 52.892 82.6193 52.11 82.006 51.466C81.3927 50.7913 80.1967 49.81 78.418 48.522C76.8847 47.418 75.6427 46.4367 74.692 45.578C73.7413 44.7193 72.9287 43.6613 72.254 42.404C71.5793 41.1467 71.242 39.69 71.242 38.034C71.242 35.4273 72.0547 33.342 73.68 31.778C75.3053 30.214 77.452 29.432 80.12 29.432C82.8187 29.432 84.9807 30.2447 86.606 31.87C88.262 33.4953 89.09 35.6267 89.09 38.264V39.368C89.09 39.5213 89.0287 39.6593 88.906 39.782C88.814 39.874 88.6913 39.92 88.538 39.92H83.248C83.0947 39.92 82.9567 39.874 82.834 39.782C82.742 39.6593 82.696 39.5213 82.696 39.368V38.126C82.696 37.1753 82.4507 36.424 81.96 35.872C81.5 35.2893 80.8867 34.998 80.12 34.998C79.384 34.998 78.786 35.274 78.326 35.826C77.866 36.3473 77.636 37.0833 77.636 38.034C77.636 38.954 77.9273 39.7667 78.51 40.472C79.0927 41.1773 80.2427 42.1587 81.96 43.416C83.8613 44.8267 85.2873 45.9767 86.238 46.866C87.2193 47.7247 87.9707 48.6907 88.492 49.764C89.044 50.8067 89.32 52.064 89.32 53.536C89.32 56.2347 88.492 58.3813 86.836 59.976C85.18 61.5707 83.0027 62.368 80.304 62.368ZM93.0155 62C92.8621 62 92.7241 61.954 92.6015 61.862C92.5095 61.7393 92.4635 61.6013 92.4635 61.448V30.352C92.4635 30.1987 92.5095 30.076 92.6015 29.984C92.7241 29.8613 92.8621 29.8 93.0155 29.8H98.3975C98.5508 29.8 98.6735 29.8613 98.7655 29.984C98.8881 30.076 98.9495 30.1987 98.9495 30.352V41.944C98.9495 42.0667 98.9801 42.1433 99.0415 42.174C99.1335 42.174 99.1948 42.1127 99.2255 41.99L105.159 30.214C105.313 29.938 105.527 29.8 105.803 29.8H111.507C111.722 29.8 111.86 29.8613 111.921 29.984C112.013 30.076 112.013 30.2293 111.921 30.444L105.113 43.692C105.083 43.8147 105.067 43.9067 105.067 43.968L112.289 61.356C112.32 61.4173 112.335 61.5093 112.335 61.632C112.335 61.8773 112.182 62 111.875 62H106.125C105.788 62 105.573 61.862 105.481 61.586L100.697 49.534C100.667 49.442 100.621 49.4113 100.559 49.442C100.498 49.442 100.437 49.4727 100.375 49.534L99.0415 51.926C98.9801 52.0487 98.9495 52.1407 98.9495 52.202V61.448C98.9495 61.6013 98.8881 61.7393 98.7655 61.862C98.6735 61.954 98.5508 62 98.3975 62H93.0155ZM121.223 61.954C121.07 61.954 120.932 61.908 120.809 61.816C120.717 61.6933 120.671 61.5553 120.671 61.402V49.442L120.625 49.166L114.185 30.444C114.154 30.3827 114.139 30.306 114.139 30.214C114.139 29.938 114.308 29.8 114.645 29.8H120.303C120.64 29.8 120.855 29.9533 120.947 30.26L123.799 41.254C123.83 41.346 123.876 41.392 123.937 41.392C123.998 41.392 124.044 41.346 124.075 41.254L126.927 30.26C127.019 29.9533 127.234 29.8 127.571 29.8H133.229C133.413 29.8 133.551 29.8613 133.643 29.984C133.735 30.076 133.75 30.2293 133.689 30.444L127.203 49.166L127.157 49.442V61.402C127.157 61.5553 127.096 61.6933 126.973 61.816C126.881 61.908 126.758 61.954 126.605 61.954H121.223ZM137.264 62C137.11 62 136.972 61.954 136.85 61.862C136.758 61.7393 136.712 61.6013 136.712 61.448V30.352C136.712 30.1987 136.758 30.076 136.85 29.984C136.972 29.8613 137.11 29.8 137.264 29.8H142.646C142.799 29.8 142.922 29.8613 143.014 29.984C143.136 30.076 143.198 30.1987 143.198 30.352V56.204C143.198 56.3573 143.274 56.434 143.428 56.434H153.088C153.241 56.434 153.364 56.4953 153.456 56.618C153.578 56.71 153.64 56.8327 153.64 56.986V61.448C153.64 61.6013 153.578 61.7393 153.456 61.862C153.364 61.954 153.241 62 153.088 62H137.264ZM156.849 62C156.696 62 156.558 61.954 156.435 61.862C156.343 61.7393 156.297 61.6013 156.297 61.448V30.352C156.297 30.1987 156.343 30.076 156.435 29.984C156.558 29.8613 156.696 29.8 156.849 29.8H162.231C162.385 29.8 162.507 29.8613 162.599 29.984C162.722 30.076 162.783 30.1987 162.783 30.352V61.448C162.783 61.6013 162.722 61.7393 162.599 61.862C162.507 61.954 162.385 62 162.231 62H156.849ZM184.747 29.8C184.9 29.8 185.023 29.8613 185.115 29.984C185.238 30.076 185.299 30.1987 185.299 30.352V34.814C185.299 34.9673 185.238 35.1053 185.115 35.228C185.023 35.32 184.9 35.366 184.747 35.366H178.997C178.844 35.366 178.767 35.4427 178.767 35.596V61.448C178.767 61.6013 178.706 61.7393 178.583 61.862C178.491 61.954 178.368 62 178.215 62H172.833C172.68 62 172.542 61.954 172.419 61.862C172.327 61.7393 172.281 61.6013 172.281 61.448V35.596C172.281 35.4427 172.204 35.366 172.051 35.366H166.531C166.378 35.366 166.24 35.32 166.117 35.228C166.025 35.1053 165.979 34.9673 165.979 34.814V30.352C165.979 30.1987 166.025 30.076 166.117 29.984C166.24 29.8613 166.378 29.8 166.531 29.8H184.747ZM205.299 34.814C205.299 34.9673 205.237 35.1053 205.115 35.228C205.023 35.32 204.9 35.366 204.747 35.366H195.133C194.979 35.366 194.903 35.4427 194.903 35.596V42.864C194.903 43.0173 194.979 43.094 195.133 43.094H200.653C200.806 43.094 200.929 43.1553 201.021 43.278C201.143 43.37 201.205 43.4927 201.205 43.646V48.108C201.205 48.2613 201.143 48.3993 201.021 48.522C200.929 48.614 200.806 48.66 200.653 48.66H195.133C194.979 48.66 194.903 48.7367 194.903 48.89V56.204C194.903 56.3573 194.979 56.434 195.133 56.434H204.747C204.9 56.434 205.023 56.4953 205.115 56.618C205.237 56.71 205.299 56.8327 205.299 56.986V61.448C205.299 61.6013 205.237 61.7393 205.115 61.862C205.023 61.954 204.9 62 204.747 62H188.969C188.815 62 188.677 61.954 188.555 61.862C188.463 61.7393 188.417 61.6013 188.417 61.448V30.352C188.417 30.1987 188.463 30.076 188.555 29.984C188.677 29.8613 188.815 29.8 188.969 29.8H204.747C204.9 29.8 205.023 29.8613 205.115 29.984C205.237 30.076 205.299 30.1987 205.299 30.352V34.814ZM82.4644 69.774C83.7297 69.774 84.7524 70.242 85.5324 71.178C86.3124 72.0967 86.7024 73.31 86.7024 74.818C86.7024 76.3087 86.321 77.5133 85.5584 78.432C84.7957 79.3333 83.7904 79.784 82.5424 79.784H79.8644C79.795 79.784 79.7604 79.8187 79.7604 79.888V87.74C79.7604 87.9133 79.6737 88 79.5004 88H78.1744C78.001 88 77.9144 87.9133 77.9144 87.74V70.034C77.9144 69.8607 78.001 69.774 78.1744 69.774H82.4644ZM82.2304 78.276C83.0104 78.276 83.643 77.964 84.1284 77.34C84.6137 76.716 84.8564 75.884 84.8564 74.844C84.8564 73.804 84.6137 72.972 84.1284 72.348C83.643 71.7067 83.0104 71.386 82.2304 71.386H79.8644C79.795 71.386 79.7604 71.4207 79.7604 71.49V78.172C79.7604 78.2413 79.795 78.276 79.8644 78.276H82.2304ZM93.6023 74.714C94.0356 74.714 94.4083 74.8093 94.7203 75C94.8416 75.0693 94.885 75.182 94.8503 75.338L94.5383 76.69C94.521 76.846 94.417 76.898 94.2263 76.846C94.0183 76.742 93.7583 76.69 93.4463 76.69C93.3076 76.69 93.2036 76.6987 93.1343 76.716C92.5103 76.7507 91.999 77.08 91.6003 77.704C91.2016 78.3107 91.0023 79.056 91.0023 79.94V87.74C91.0023 87.9133 90.9156 88 90.7423 88H89.4163C89.243 88 89.1563 87.9133 89.1563 87.74V75.104C89.1563 74.9307 89.243 74.844 89.4163 74.844H90.7423C90.9156 74.844 91.0023 74.9307 91.0023 75.104V76.664C91.0023 76.716 91.011 76.742 91.0283 76.742C91.063 76.742 91.0976 76.7247 91.1323 76.69C91.635 75.3727 92.4583 74.714 93.6023 74.714ZM100.443 88.208C99.1945 88.208 98.1979 87.844 97.4525 87.116C96.7245 86.388 96.3605 85.426 96.3605 84.23V78.64C96.3605 77.4613 96.7332 76.4993 97.4785 75.754C98.2239 75.0087 99.2119 74.636 100.443 74.636C101.691 74.636 102.687 75.0087 103.433 75.754C104.178 76.4993 104.551 77.4613 104.551 78.64V84.23C104.551 85.426 104.178 86.388 103.433 87.116C102.687 87.844 101.691 88.208 100.443 88.208ZM100.443 86.57C101.101 86.57 101.639 86.3447 102.055 85.894C102.488 85.4433 102.705 84.8453 102.705 84.1V78.744C102.705 77.9987 102.488 77.4007 102.055 76.95C101.639 76.482 101.101 76.248 100.443 76.248C99.7839 76.248 99.2465 76.482 98.8305 76.95C98.4145 77.4007 98.2065 77.9987 98.2065 78.744V84.1C98.2065 84.8453 98.4145 85.4433 98.8305 85.894C99.2465 86.3447 99.7839 86.57 100.443 86.57ZM112.066 74.636C113.158 74.636 114.033 75.0087 114.692 75.754C115.35 76.482 115.68 77.4353 115.68 78.614V84.23C115.68 85.4433 115.35 86.414 114.692 87.142C114.033 87.8527 113.158 88.208 112.066 88.208C111.58 88.208 111.121 88.1213 110.688 87.948C110.254 87.7573 109.873 87.4713 109.544 87.09C109.509 87.0553 109.474 87.0467 109.44 87.064C109.422 87.0813 109.414 87.1073 109.414 87.142V92.784C109.414 92.9573 109.327 93.044 109.154 93.044H107.828C107.654 93.044 107.568 92.9573 107.568 92.784V75.104C107.568 74.9307 107.654 74.844 107.828 74.844H109.154C109.327 74.844 109.414 74.9307 109.414 75.104V75.702C109.414 75.7367 109.431 75.7627 109.466 75.78C109.5 75.78 109.535 75.7627 109.57 75.728C109.882 75.364 110.254 75.0953 110.688 74.922C111.138 74.7313 111.598 74.636 112.066 74.636ZM113.86 78.744C113.86 77.9987 113.643 77.4007 113.21 76.95C112.794 76.482 112.256 76.248 111.598 76.248C110.956 76.248 110.428 76.482 110.012 76.95C109.613 77.4007 109.414 77.9987 109.414 78.744V84.1C109.414 84.8453 109.613 85.452 110.012 85.92C110.428 86.3707 110.956 86.596 111.598 86.596C112.256 86.596 112.794 86.3707 113.21 85.92C113.643 85.452 113.86 84.8453 113.86 84.1V78.744ZM126.411 81.864C126.411 82.0373 126.324 82.124 126.151 82.124H120.223C120.153 82.124 120.119 82.1587 120.119 82.228V84.126C120.119 84.854 120.318 85.452 120.717 85.92C121.133 86.3707 121.67 86.596 122.329 86.596C122.883 86.596 123.351 86.4313 123.733 86.102C124.131 85.7553 124.391 85.3133 124.513 84.776C124.565 84.62 124.66 84.542 124.799 84.542L126.099 84.594C126.168 84.594 126.229 84.62 126.281 84.672C126.333 84.724 126.35 84.7933 126.333 84.88C126.194 85.9027 125.769 86.7173 125.059 87.324C124.365 87.9133 123.455 88.208 122.329 88.208C121.098 88.208 120.11 87.844 119.365 87.116C118.637 86.388 118.273 85.426 118.273 84.23V78.614C118.273 77.4353 118.637 76.482 119.365 75.754C120.11 75.0087 121.098 74.636 122.329 74.636C123.577 74.636 124.565 75.0087 125.293 75.754C126.038 76.482 126.411 77.4353 126.411 78.614V81.864ZM122.329 76.248C121.67 76.248 121.133 76.482 120.717 76.95C120.318 77.4007 120.119 77.9987 120.119 78.744V80.486C120.119 80.5553 120.153 80.59 120.223 80.59H124.487C124.556 80.59 124.591 80.5553 124.591 80.486V78.744C124.591 77.9987 124.383 77.4007 123.967 76.95C123.551 76.482 123.005 76.248 122.329 76.248ZM133.593 74.714C134.026 74.714 134.399 74.8093 134.711 75C134.832 75.0693 134.875 75.182 134.841 75.338L134.529 76.69C134.511 76.846 134.407 76.898 134.217 76.846C134.009 76.742 133.749 76.69 133.437 76.69C133.298 76.69 133.194 76.6987 133.125 76.716C132.501 76.7507 131.989 77.08 131.591 77.704C131.192 78.3107 130.993 79.056 130.993 79.94V87.74C130.993 87.9133 130.906 88 130.733 88H129.407C129.233 88 129.147 87.9133 129.147 87.74V75.104C129.147 74.9307 129.233 74.844 129.407 74.844H130.733C130.906 74.844 130.993 74.9307 130.993 75.104V76.664C130.993 76.716 131.001 76.742 131.019 76.742C131.053 76.742 131.088 76.7247 131.123 76.69C131.625 75.3727 132.449 74.714 133.593 74.714ZM141.366 75.962C141.366 76.1353 141.28 76.222 141.106 76.222H139.13C139.061 76.222 139.026 76.2567 139.026 76.326V84.282C139.026 85.0793 139.165 85.634 139.442 85.946C139.72 86.2407 140.144 86.3793 140.716 86.362H140.976C141.15 86.362 141.236 86.4487 141.236 86.622V87.74C141.236 87.9133 141.15 88 140.976 88H140.326C139.304 88 138.524 87.7833 137.986 87.35C137.466 86.8993 137.206 86.0587 137.206 84.828V76.326C137.206 76.2567 137.172 76.222 137.102 76.222H136.088C135.915 76.222 135.828 76.1353 135.828 75.962V75.104C135.828 74.9307 135.915 74.844 136.088 74.844H137.102C137.172 74.844 137.206 74.8093 137.206 74.74V71.828C137.206 71.6547 137.293 71.568 137.466 71.568H138.766C138.94 71.568 139.026 71.6547 139.026 71.828V74.74C139.026 74.8093 139.061 74.844 139.13 74.844H141.106C141.28 74.844 141.366 74.9307 141.366 75.104V75.962ZM144.788 72.452C144.355 72.452 143.999 72.3133 143.722 72.036C143.462 71.7587 143.332 71.412 143.332 70.996C143.332 70.5627 143.462 70.216 143.722 69.956C143.999 69.6787 144.355 69.54 144.788 69.54C145.204 69.54 145.542 69.6787 145.802 69.956C146.079 70.216 146.218 70.5627 146.218 70.996C146.218 71.412 146.079 71.7587 145.802 72.036C145.542 72.3133 145.204 72.452 144.788 72.452ZM144.138 88C143.965 88 143.878 87.9133 143.878 87.74V75.104C143.878 74.9307 143.965 74.844 144.138 74.844H145.464C145.637 74.844 145.724 74.9307 145.724 75.104V87.74C145.724 87.9133 145.637 88 145.464 88H144.138ZM156.93 81.864C156.93 82.0373 156.844 82.124 156.67 82.124H150.742C150.673 82.124 150.638 82.1587 150.638 82.228V84.126C150.638 84.854 150.838 85.452 151.236 85.92C151.652 86.3707 152.19 86.596 152.848 86.596C153.403 86.596 153.871 86.4313 154.252 86.102C154.651 85.7553 154.911 85.3133 155.032 84.776C155.084 84.62 155.18 84.542 155.318 84.542L156.618 84.594C156.688 84.594 156.748 84.62 156.8 84.672C156.852 84.724 156.87 84.7933 156.852 84.88C156.714 85.9027 156.289 86.7173 155.578 87.324C154.885 87.9133 153.975 88.208 152.848 88.208C151.618 88.208 150.63 87.844 149.884 87.116C149.156 86.388 148.792 85.426 148.792 84.23V78.614C148.792 77.4353 149.156 76.482 149.884 75.754C150.63 75.0087 151.618 74.636 152.848 74.636C154.096 74.636 155.084 75.0087 155.812 75.754C156.558 76.482 156.93 77.4353 156.93 78.614V81.864ZM152.848 76.248C152.19 76.248 151.652 76.482 151.236 76.95C150.838 77.4007 150.638 77.9987 150.638 78.744V80.486C150.638 80.5553 150.673 80.59 150.742 80.59H155.006C155.076 80.59 155.11 80.5553 155.11 80.486V78.744C155.11 77.9987 154.902 77.4007 154.486 76.95C154.07 76.482 153.524 76.248 152.848 76.248ZM163.047 88.13C161.851 88.13 160.889 87.8267 160.161 87.22C159.451 86.596 159.095 85.7727 159.095 84.75V84.568C159.095 84.3947 159.182 84.308 159.355 84.308H160.603C160.777 84.308 160.863 84.3947 160.863 84.568V84.724C160.863 85.2787 161.063 85.7467 161.461 86.128C161.877 86.5093 162.415 86.7 163.073 86.7C163.697 86.7 164.2 86.5093 164.581 86.128C164.963 85.7467 165.153 85.2613 165.153 84.672C165.153 84.2213 165.032 83.8487 164.789 83.554C164.547 83.242 164.261 82.9993 163.931 82.826C163.619 82.6527 163.143 82.4273 162.501 82.15C161.825 81.8727 161.262 81.604 160.811 81.344C160.378 81.0667 159.997 80.6853 159.667 80.2C159.355 79.6973 159.199 79.0647 159.199 78.302C159.199 77.1927 159.537 76.3173 160.213 75.676C160.907 75.0347 161.834 74.714 162.995 74.714C164.174 74.714 165.11 75.0433 165.803 75.702C166.497 76.3607 166.843 77.236 166.843 78.328V78.406C166.843 78.5793 166.757 78.666 166.583 78.666H165.387C165.214 78.666 165.127 78.5793 165.127 78.406V78.25C165.127 77.6607 164.928 77.1753 164.529 76.794C164.148 76.4127 163.645 76.222 163.021 76.222C162.397 76.222 161.895 76.4213 161.513 76.82C161.149 77.2013 160.967 77.678 160.967 78.25C160.967 78.666 161.08 79.0213 161.305 79.316C161.531 79.5933 161.808 79.8273 162.137 80.018C162.467 80.1913 162.926 80.408 163.515 80.668C164.226 80.98 164.807 81.2747 165.257 81.552C165.725 81.8293 166.133 82.2193 166.479 82.722C166.826 83.2247 166.999 83.8487 166.999 84.594C166.999 85.6687 166.644 86.5267 165.933 87.168C165.223 87.8093 164.261 88.13 163.047 88.13Z" fill="#202A54"/>
<path d="M30.321 67.297V39.473L52.786 23.065L58.98 27.59L65.186 23.057L52.786 14L23 35.754V67.297H30.321Z" fill="#202A54"/>
<path d="M54.582 65.297V39.473L77.047 23.065L89.448 23.057L77.047 14L47.261 35.754V65.297H54.582Z" fill="#202A54"/>
</svg>
